<mxfile host="app.diagrams.net" modified="2024-02-29T13:02:20.960Z" agent="Mozilla/5.0 (Windows NT 10.0; Win64; x64) AppleWebKit/537.36 (KHTML, like Gecko) Chrome/122.0.0.0 Safari/537.36 Edg/122.0.0.0" etag="NjmKm21xEQkN4BT8SD9j" version="23.1.8" type="device">
  <diagram name="Strona-1" id="uhfY-P4yFkAwf-6rYQ4y">
    <mxGraphModel dx="601" dy="332" grid="1" gridSize="10" guides="1" tooltips="1" connect="1" arrows="1" fold="1" page="1" pageScale="1" pageWidth="827" pageHeight="1169" math="0" shadow="0">
      <root>
        <mxCell id="0" />
        <mxCell id="1" parent="0" />
        <mxCell id="NGwAYOrvqWqWgARnq1O7-1" value="FIlmy" style="rounded=0;whiteSpace=wrap;html=1;" vertex="1" parent="1">
          <mxGeometry x="294" y="90" width="120" height="60" as="geometry" />
        </mxCell>
        <mxCell id="NGwAYOrvqWqWgARnq1O7-21" style="edgeStyle=orthogonalEdgeStyle;rounded=0;orthogonalLoop=1;jettySize=auto;html=1;exitX=0.5;exitY=0;exitDx=0;exitDy=0;entryX=0.5;entryY=1;entryDx=0;entryDy=0;" edge="1" parent="1" source="NGwAYOrvqWqWgARnq1O7-2" target="NGwAYOrvqWqWgARnq1O7-20">
          <mxGeometry relative="1" as="geometry" />
        </mxCell>
        <mxCell id="NGwAYOrvqWqWgARnq1O7-27" style="edgeStyle=orthogonalEdgeStyle;rounded=0;orthogonalLoop=1;jettySize=auto;html=1;exitX=1;exitY=1;exitDx=0;exitDy=0;entryX=0.5;entryY=0;entryDx=0;entryDy=0;" edge="1" parent="1" source="NGwAYOrvqWqWgARnq1O7-2" target="NGwAYOrvqWqWgARnq1O7-26">
          <mxGeometry relative="1" as="geometry" />
        </mxCell>
        <mxCell id="NGwAYOrvqWqWgARnq1O7-2" value="oscary" style="rounded=0;whiteSpace=wrap;html=1;" vertex="1" parent="1">
          <mxGeometry x="660" y="220" width="120" height="60" as="geometry" />
        </mxCell>
        <mxCell id="NGwAYOrvqWqWgARnq1O7-10" style="edgeStyle=orthogonalEdgeStyle;rounded=0;orthogonalLoop=1;jettySize=auto;html=1;exitX=1;exitY=0.5;exitDx=0;exitDy=0;entryX=0;entryY=0.5;entryDx=0;entryDy=0;" edge="1" parent="1" source="NGwAYOrvqWqWgARnq1O7-3" target="NGwAYOrvqWqWgARnq1O7-9">
          <mxGeometry relative="1" as="geometry" />
        </mxCell>
        <mxCell id="NGwAYOrvqWqWgARnq1O7-17" style="edgeStyle=orthogonalEdgeStyle;rounded=0;orthogonalLoop=1;jettySize=auto;html=1;" edge="1" parent="1" source="NGwAYOrvqWqWgARnq1O7-3" target="NGwAYOrvqWqWgARnq1O7-12">
          <mxGeometry relative="1" as="geometry" />
        </mxCell>
        <mxCell id="NGwAYOrvqWqWgARnq1O7-32" style="edgeStyle=orthogonalEdgeStyle;rounded=0;orthogonalLoop=1;jettySize=auto;html=1;exitX=0.25;exitY=1;exitDx=0;exitDy=0;entryX=0.5;entryY=0;entryDx=0;entryDy=0;" edge="1" parent="1" source="NGwAYOrvqWqWgARnq1O7-3" target="NGwAYOrvqWqWgARnq1O7-30">
          <mxGeometry relative="1" as="geometry" />
        </mxCell>
        <mxCell id="NGwAYOrvqWqWgARnq1O7-33" style="edgeStyle=orthogonalEdgeStyle;rounded=0;orthogonalLoop=1;jettySize=auto;html=1;exitX=0.5;exitY=1;exitDx=0;exitDy=0;entryX=0.5;entryY=0;entryDx=0;entryDy=0;" edge="1" parent="1" source="NGwAYOrvqWqWgARnq1O7-3" target="NGwAYOrvqWqWgARnq1O7-29">
          <mxGeometry relative="1" as="geometry" />
        </mxCell>
        <mxCell id="NGwAYOrvqWqWgARnq1O7-34" style="edgeStyle=orthogonalEdgeStyle;rounded=0;orthogonalLoop=1;jettySize=auto;html=1;exitX=1;exitY=1;exitDx=0;exitDy=0;entryX=0.5;entryY=0;entryDx=0;entryDy=0;" edge="1" parent="1" source="NGwAYOrvqWqWgARnq1O7-3" target="NGwAYOrvqWqWgARnq1O7-28">
          <mxGeometry relative="1" as="geometry" />
        </mxCell>
        <mxCell id="NGwAYOrvqWqWgARnq1O7-3" value="aktor" style="rounded=0;whiteSpace=wrap;html=1;" vertex="1" parent="1">
          <mxGeometry x="294" y="390" width="120" height="60" as="geometry" />
        </mxCell>
        <mxCell id="NGwAYOrvqWqWgARnq1O7-4" value="reżyser" style="rounded=0;whiteSpace=wrap;html=1;" vertex="1" parent="1">
          <mxGeometry x="80" y="230" width="120" height="60" as="geometry" />
        </mxCell>
        <mxCell id="NGwAYOrvqWqWgARnq1O7-7" style="edgeStyle=orthogonalEdgeStyle;rounded=0;orthogonalLoop=1;jettySize=auto;html=1;entryX=0.5;entryY=0;entryDx=0;entryDy=0;endArrow=oval;endFill=1;" edge="1" parent="1" source="NGwAYOrvqWqWgARnq1O7-5" target="NGwAYOrvqWqWgARnq1O7-4">
          <mxGeometry relative="1" as="geometry" />
        </mxCell>
        <mxCell id="NGwAYOrvqWqWgARnq1O7-8" style="edgeStyle=orthogonalEdgeStyle;rounded=0;orthogonalLoop=1;jettySize=auto;html=1;" edge="1" parent="1" source="NGwAYOrvqWqWgARnq1O7-5" target="NGwAYOrvqWqWgARnq1O7-1">
          <mxGeometry relative="1" as="geometry" />
        </mxCell>
        <mxCell id="NGwAYOrvqWqWgARnq1O7-5" value="kręci" style="shape=rhombus;perimeter=rhombusPerimeter;whiteSpace=wrap;html=1;align=center;" vertex="1" parent="1">
          <mxGeometry x="80" y="95" width="120" height="50" as="geometry" />
        </mxCell>
        <mxCell id="NGwAYOrvqWqWgARnq1O7-13" style="edgeStyle=orthogonalEdgeStyle;rounded=0;orthogonalLoop=1;jettySize=auto;html=1;exitX=1;exitY=0.5;exitDx=0;exitDy=0;entryX=0;entryY=0.5;entryDx=0;entryDy=0;" edge="1" parent="1" source="NGwAYOrvqWqWgARnq1O7-6" target="NGwAYOrvqWqWgARnq1O7-2">
          <mxGeometry relative="1" as="geometry" />
        </mxCell>
        <mxCell id="NGwAYOrvqWqWgARnq1O7-14" style="edgeStyle=orthogonalEdgeStyle;rounded=0;orthogonalLoop=1;jettySize=auto;html=1;exitX=0.5;exitY=0;exitDx=0;exitDy=0;entryX=0.5;entryY=1;entryDx=0;entryDy=0;" edge="1" parent="1" source="NGwAYOrvqWqWgARnq1O7-6" target="NGwAYOrvqWqWgARnq1O7-1">
          <mxGeometry relative="1" as="geometry" />
        </mxCell>
        <mxCell id="NGwAYOrvqWqWgARnq1O7-15" style="edgeStyle=orthogonalEdgeStyle;rounded=0;orthogonalLoop=1;jettySize=auto;html=1;exitX=0;exitY=0.5;exitDx=0;exitDy=0;entryX=1;entryY=0.5;entryDx=0;entryDy=0;" edge="1" parent="1" source="NGwAYOrvqWqWgARnq1O7-6" target="NGwAYOrvqWqWgARnq1O7-4">
          <mxGeometry relative="1" as="geometry" />
        </mxCell>
        <mxCell id="NGwAYOrvqWqWgARnq1O7-16" style="edgeStyle=orthogonalEdgeStyle;rounded=0;orthogonalLoop=1;jettySize=auto;html=1;exitX=0.5;exitY=1;exitDx=0;exitDy=0;entryX=0.5;entryY=0;entryDx=0;entryDy=0;" edge="1" parent="1" source="NGwAYOrvqWqWgARnq1O7-6" target="NGwAYOrvqWqWgARnq1O7-3">
          <mxGeometry relative="1" as="geometry" />
        </mxCell>
        <mxCell id="NGwAYOrvqWqWgARnq1O7-6" value="dostaja" style="shape=rhombus;perimeter=rhombusPerimeter;whiteSpace=wrap;html=1;align=center;" vertex="1" parent="1">
          <mxGeometry x="294" y="220" width="120" height="60" as="geometry" />
        </mxCell>
        <mxCell id="NGwAYOrvqWqWgARnq1O7-11" style="edgeStyle=orthogonalEdgeStyle;rounded=0;orthogonalLoop=1;jettySize=auto;html=1;exitX=0.5;exitY=0;exitDx=0;exitDy=0;entryX=0.5;entryY=1;entryDx=0;entryDy=0;" edge="1" parent="1" source="NGwAYOrvqWqWgARnq1O7-9" target="NGwAYOrvqWqWgARnq1O7-2">
          <mxGeometry relative="1" as="geometry" />
        </mxCell>
        <mxCell id="NGwAYOrvqWqWgARnq1O7-9" value="zdobywa" style="shape=rhombus;perimeter=rhombusPerimeter;whiteSpace=wrap;html=1;align=center;" vertex="1" parent="1">
          <mxGeometry x="430" y="340" width="120" height="60" as="geometry" />
        </mxCell>
        <mxCell id="NGwAYOrvqWqWgARnq1O7-19" style="edgeStyle=orthogonalEdgeStyle;rounded=0;orthogonalLoop=1;jettySize=auto;html=1;exitX=0.5;exitY=0;exitDx=0;exitDy=0;entryX=0.5;entryY=0;entryDx=0;entryDy=0;" edge="1" parent="1" source="NGwAYOrvqWqWgARnq1O7-12" target="NGwAYOrvqWqWgARnq1O7-1">
          <mxGeometry relative="1" as="geometry" />
        </mxCell>
        <mxCell id="NGwAYOrvqWqWgARnq1O7-12" value="gra" style="shape=rhombus;perimeter=rhombusPerimeter;whiteSpace=wrap;html=1;align=center;" vertex="1" parent="1">
          <mxGeometry x="50" y="450" width="120" height="60" as="geometry" />
        </mxCell>
        <mxCell id="NGwAYOrvqWqWgARnq1O7-20" value="kategoria" style="ellipse;whiteSpace=wrap;html=1;align=center;" vertex="1" parent="1">
          <mxGeometry x="590" y="160" width="100" height="40" as="geometry" />
        </mxCell>
        <mxCell id="NGwAYOrvqWqWgARnq1O7-23" style="edgeStyle=orthogonalEdgeStyle;rounded=0;orthogonalLoop=1;jettySize=auto;html=1;entryX=0.5;entryY=0;entryDx=0;entryDy=0;" edge="1" parent="1" source="NGwAYOrvqWqWgARnq1O7-22" target="NGwAYOrvqWqWgARnq1O7-2">
          <mxGeometry relative="1" as="geometry" />
        </mxCell>
        <mxCell id="NGwAYOrvqWqWgARnq1O7-22" value="id_typ" style="ellipse;whiteSpace=wrap;html=1;align=center;" vertex="1" parent="1">
          <mxGeometry x="690" y="150" width="100" height="40" as="geometry" />
        </mxCell>
        <mxCell id="NGwAYOrvqWqWgARnq1O7-25" style="edgeStyle=orthogonalEdgeStyle;rounded=0;orthogonalLoop=1;jettySize=auto;html=1;entryX=0;entryY=0.25;entryDx=0;entryDy=0;" edge="1" parent="1" source="NGwAYOrvqWqWgARnq1O7-24" target="NGwAYOrvqWqWgARnq1O7-2">
          <mxGeometry relative="1" as="geometry" />
        </mxCell>
        <mxCell id="NGwAYOrvqWqWgARnq1O7-24" value="id_film" style="ellipse;whiteSpace=wrap;html=1;align=center;" vertex="1" parent="1">
          <mxGeometry x="520" y="200" width="100" height="40" as="geometry" />
        </mxCell>
        <mxCell id="NGwAYOrvqWqWgARnq1O7-26" value="id_oscary" style="ellipse;whiteSpace=wrap;html=1;align=center;" vertex="1" parent="1">
          <mxGeometry x="670" y="330" width="100" height="40" as="geometry" />
        </mxCell>
        <mxCell id="NGwAYOrvqWqWgARnq1O7-28" value="nazwisko" style="ellipse;whiteSpace=wrap;html=1;align=center;" vertex="1" parent="1">
          <mxGeometry x="480" y="460" width="100" height="40" as="geometry" />
        </mxCell>
        <mxCell id="NGwAYOrvqWqWgARnq1O7-29" value="id_autorzy" style="ellipse;whiteSpace=wrap;html=1;align=center;" vertex="1" parent="1">
          <mxGeometry x="350" y="470" width="100" height="40" as="geometry" />
        </mxCell>
        <mxCell id="NGwAYOrvqWqWgARnq1O7-30" value="imie" style="ellipse;whiteSpace=wrap;html=1;align=center;" vertex="1" parent="1">
          <mxGeometry x="240" y="470" width="100" height="40" as="geometry" />
        </mxCell>
        <mxCell id="NGwAYOrvqWqWgARnq1O7-31" value="wiek" style="ellipse;whiteSpace=wrap;html=1;align=center;" vertex="1" parent="1">
          <mxGeometry x="304" y="510" width="100" height="40" as="geometry" />
        </mxCell>
        <mxCell id="NGwAYOrvqWqWgARnq1O7-35" style="edgeStyle=orthogonalEdgeStyle;rounded=0;orthogonalLoop=1;jettySize=auto;html=1;exitX=0.5;exitY=1;exitDx=0;exitDy=0;" edge="1" parent="1" source="NGwAYOrvqWqWgARnq1O7-3" target="NGwAYOrvqWqWgARnq1O7-31">
          <mxGeometry relative="1" as="geometry" />
        </mxCell>
      </root>
    </mxGraphModel>
  </diagram>
</mxfile>
